<svg width="175" height="30" viewBox="0 0 175 30" fill="none" xmlns="http://www.w3.org/2000/svg">
<rect width="30" height="30" rx="4" fill="#165DFF"/>
<path d="M6.90586 17.4594H5.47913V21.3576V22.7128H6.90001H15.7469V21.3576H6.90586V17.4594Z" fill="white"/>
<path d="M19.1033 16.3384H21.3954V21.3576H16.9866V22.7127H21.4071H22.8163V21.3576V16.3384H24.0559V14.9777H19.1033V16.3384Z" fill="white"/>
<path d="M12.1334 13.3994L13.2151 12.3733L11.572 10.8006H11.5779L11.4025 10.6333V9.69641H9.68922V10.5329L3.33325 16.6005L4.41499 17.6323L10.4903 11.8323L12.1334 13.3994Z" fill="white"/>
<path d="M15.0454 14.1189L13.9636 15.1506L16.554 17.6323L17.6357 16.6006L15.0454 14.1189Z" fill="white"/>
<path d="M20.3137 8.38029L20.3313 8.36356L20.1266 8.17395V7.28723H18.4192V8.12376L10.9523 15.2454L12.034 16.2771L19.232 9.40643L26.4183 16.2994L27.5 15.2677L20.3137 8.38029Z" fill="white"/>
<path d="M47.485 12.365C47.485 12.595 47.44 12.81 47.35 13.01C47.27 13.2 47.155 13.37 47.005 13.52C46.855 13.67 46.68 13.79 46.48 13.88C46.28 13.96 46.065 14 45.835 14H43.945L44.605 12.53H44.935C45.065 12.53 45.175 12.485 45.265 12.395C45.355 12.295 45.4 12.18 45.4 12.05V5.735H47.485V12.365ZM44.335 6.365V12.65H42.535V6.365H44.335ZM47.485 5.015H45.055L44.905 5.36H42.73L42.88 5.015H38.92L39.07 5.36H36.895L36.745 5.015H34.315V3.53H36.085L35.92 3.185H38.095L38.26 3.53H43.54L43.705 3.185H45.88L45.715 3.53H47.485V5.015ZM36.4 14H34.315L34.57 10.295H36.655L36.4 14ZM39.745 10.295H41.83L42.07 14H40L39.745 10.295ZM37.15 9.905H34.315V8.42H37.15V7.415L34.495 7.52V6.035L41.905 5.735V7.22L39.235 7.325V8.42H42.085V9.905H39.235V14H37.15V9.905ZM59.6638 3.725C59.8838 3.725 60.0938 3.77 60.2938 3.86C60.4938 3.94 60.6688 4.055 60.8188 4.205C60.9688 4.355 61.0838 4.53 61.1638 4.73C61.2538 4.93 61.2988 5.14 61.2988 5.36V6.545H59.6938V7.655H55.5838L56.3488 8.99V9.89L57.6238 7.94H59.6938L58.3288 10.025H59.0638L60.9988 14H58.9888L57.2038 10.25H56.3488V12.35C56.3488 12.58 56.3038 12.795 56.2138 12.995C56.1338 13.195 56.0188 13.37 55.8688 13.52C55.7188 13.67 55.5438 13.79 55.3438 13.88C55.1438 13.96 54.9338 14 54.7138 14H52.7188L53.3638 12.68H53.7988C53.9388 12.68 54.0538 12.635 54.1438 12.545C54.2338 12.455 54.2788 12.34 54.2788 12.2V12.14L48.1288 13.655V12.395L54.2788 10.82V10.43L48.1288 11.945V10.685L54.2338 9.185L54.0088 8.81L48.1288 10.25V8.825L53.3488 7.655H53.3338H49.3738V6.545H48.0838V3.725H53.3188L53.0938 3.2H55.3438L55.5688 3.725H59.6638ZM50.0038 5.105V6.335H59.3788V5.57C59.3788 5.44 59.3338 5.33 59.2438 5.24C59.1538 5.15 59.0438 5.105 58.9138 5.105H50.0038ZM69.5927 10.805V11.315H74.9627V12.395H69.5927V12.935H75.2327V14.015H62.6327V12.935H63.3677V11.315H65.3927L65.3477 12.935H67.5527V10.805H62.6327V9.695H75.2327V10.805H69.5927ZM65.1827 5.045V4.745H62.6927V3.65H65.1827V3.185H67.0577V3.65H69.5477V4.745H67.0577V5.045H69.5477V6.02C69.5277 6.25 69.4627 6.45 69.3527 6.62C69.2527 6.79 69.1177 6.95 68.9477 7.1C68.7877 7.23 68.6027 7.34 68.3927 7.43C68.2027 7.5 67.9877 7.535 67.7477 7.535H67.0577V9.245H65.1827V7.535H62.6927V5.045H65.1827ZM75.5477 4.805C75.4977 5.055 75.4327 5.3 75.3527 5.54C75.2827 5.77 75.1827 6 75.0527 6.23C74.8127 6.71 74.5027 7.13 74.1227 7.49C74.6027 7.7 75.0827 7.805 75.5627 7.805V9.245C75.3027 9.265 75.0477 9.26 74.7977 9.23C74.5477 9.2 74.3027 9.155 74.0627 9.095C73.5927 8.985 73.1377 8.81 72.6977 8.57C72.2577 8.8 71.7977 8.975 71.3177 9.095C71.0677 9.155 70.8177 9.2 70.5677 9.23C70.3177 9.26 70.0627 9.265 69.8027 9.245V7.805C70.2827 7.805 70.7677 7.7 71.2577 7.49C70.9177 7.16 70.6227 6.795 70.3727 6.395C70.2527 6.185 70.1527 5.975 70.0727 5.765C69.9927 5.555 69.9277 5.345 69.8777 5.135H71.7377C71.8177 5.405 71.9427 5.665 72.1127 5.915C72.1927 6.035 72.2777 6.155 72.3677 6.275C72.4677 6.385 72.5777 6.495 72.6977 6.605C72.9477 6.375 73.1627 6.1 73.3427 5.78C73.5127 5.46 73.6377 5.135 73.7177 4.805H69.9227L70.6877 3.185H72.6827L72.5327 3.755H75.5627V4.805H75.5477ZM62.6927 9.245L63.2477 7.97H65.0477L64.5677 9.245H62.6927ZM68.9927 7.97L69.5477 9.245H67.6877L67.2077 7.97H68.9927ZM65.1827 6.575V6.02H64.4627V6.575H65.1827ZM67.0577 6.02V6.575H67.3127C67.4527 6.575 67.5727 6.525 67.6727 6.425C67.7627 6.335 67.8077 6.225 67.8077 6.095V6.02H67.0577ZM90.0527 14.03H82.2377V12.8H85.1027V11.42H82.3427V10.16H85.1027V9.185H84.1877H82.6127H82.2827V3.155H82.6127H84.1877H90.0077V7.535C90.0077 7.765 89.9627 7.98 89.8727 8.18C89.7927 8.38 89.6777 8.555 89.5277 8.705C89.3777 8.855 89.2027 8.975 89.0027 9.065C88.8027 9.145 88.5877 9.185 88.3577 9.185H87.1877V10.16H89.9327V11.42H87.1877V12.8H90.0527V14.03ZM88.0877 6.755H87.1877V7.955H87.6227C87.7527 7.955 87.8627 7.91 87.9527 7.82C88.0427 7.73 88.0877 7.615 88.0877 7.475V6.755ZM88.0877 4.385H87.1877V5.525H88.0877V4.385ZM84.1877 4.385V5.525H85.1027V4.385H84.1877ZM85.1027 7.955V6.755H84.1877V7.955H85.1027ZM76.9277 3.185H81.7427V4.67H80.3777V7.43H81.6077V8.915H80.3777V12.56H81.7427V14.045H76.9277V12.56H78.2927V8.915H77.0777V7.43H78.2927V4.67H76.9277V3.185ZM99.9515 9.155L100.821 5.405H102.621L101.751 9.155H99.9515ZM94.7915 9.155H92.9915L92.1815 5.405H93.9815L94.7915 9.155ZM103.881 11.21H98.3465V13.97H96.2615V11.21H90.7115V10.82V9.815V9.74H96.2615V4.7H91.2065V4.475V3.47V3.23H103.386V3.47V4.475V4.7H98.3465V9.74H103.881V9.815V10.82V11.21ZM117.125 12.5C117.125 12.7 117.085 12.885 117.005 13.055C116.935 13.225 116.835 13.375 116.705 13.505C116.585 13.625 116.435 13.725 116.255 13.805C116.085 13.875 115.905 13.91 115.715 13.91H107.09H104.9V12.455V9.98V9.8V8.51H117.125V8.54V9.98V12.5ZM114.935 9.98H107.09V12.455H114.47C114.6 12.455 114.71 12.41 114.8 12.32C114.89 12.23 114.935 12.115 114.935 11.975V9.98ZM104.66 7.79L107.555 3.275H109.67L107.72 6.32H114.44L112.97 3.875H114.98L117.53 8.135H115.535L115.325 7.79H106.775H105.26H104.66ZM129.889 6.05C130.109 6.05 130.314 6.095 130.504 6.185C130.704 6.265 130.874 6.38 131.014 6.53C131.154 6.67 131.264 6.84 131.344 7.04C131.434 7.23 131.479 7.435 131.479 7.655V7.925H130.429V8.75V9.395C130.429 9.715 130.314 9.99 130.084 10.22C129.854 10.45 129.579 10.565 129.259 10.565H121.504V11.09H130.429V11.315V12.215V12.845C130.429 13.005 130.399 13.155 130.339 13.295C130.279 13.435 130.194 13.56 130.084 13.67C129.984 13.77 129.859 13.85 129.709 13.91C129.569 13.97 129.419 14 129.259 14H119.464V12.905V12.215V11.09V10.565V9.455V8.75V7.925H118.309V6.05H123.649L123.424 5.645H125.689L125.914 6.05H129.889ZM121.504 12.215V12.905H128.149C128.309 12.905 128.389 12.825 128.389 12.665V12.215H121.504ZM120.364 7.055V7.64H129.424V7.445C129.424 7.335 129.384 7.245 129.304 7.175C129.234 7.095 129.144 7.055 129.034 7.055H125.899H123.844H120.364ZM128.389 8.75H121.504V9.455H128.149C128.309 9.455 128.389 9.375 128.389 9.215V8.75ZM124.579 4.64H123.184L123.574 5.36H121.834L121.429 4.64H120.709L120.379 5.36H118.309L119.329 3.2H121.384L121.189 3.62H124.579V4.64ZM128.074 3.2L127.864 3.62H131.254V4.64H129.859L130.264 5.36H128.509L128.104 4.64H127.384L127.054 5.36H124.984L126.004 3.2H128.074ZM145.248 14.03H137.433V12.8H140.298V11.42H137.538V10.16H140.298V9.185H139.383H137.808H137.478V3.155H137.808H139.383H145.203V7.535C145.203 7.765 145.158 7.98 145.068 8.18C144.988 8.38 144.873 8.555 144.723 8.705C144.573 8.855 144.398 8.975 144.198 9.065C143.998 9.145 143.783 9.185 143.553 9.185H142.383V10.16H145.128V11.42H142.383V12.8H145.248V14.03ZM143.283 6.755H142.383V7.955H142.818C142.948 7.955 143.058 7.91 143.148 7.82C143.238 7.73 143.283 7.615 143.283 7.475V6.755ZM143.283 4.385H142.383V5.525H143.283V4.385ZM139.383 4.385V5.525H140.298V4.385H139.383ZM140.298 7.955V6.755H139.383V7.955H140.298ZM132.123 3.185H136.938V4.67H135.573V7.43H136.803V8.915H135.573V12.56H136.938V14.045H132.123V12.56H133.488V8.915H132.273V7.43H133.488V4.67H132.123V3.185ZM147.902 14H145.952L147.062 11.15H149.027L147.902 14ZM157.967 11.15L159.077 14H157.112L156.002 11.15H157.967ZM145.907 3.905L159.077 3.185V4.88L153.452 5.195L151.427 6.515H152.057H152.672H155.237L151.427 8.99H155.852L155.042 7.82H157.202L159.077 10.52H158.162H156.917H154.097V12.365C154.097 12.595 154.052 12.81 153.962 13.01C153.872 13.21 153.752 13.385 153.602 13.535C153.452 13.685 153.277 13.805 153.077 13.895C152.877 13.975 152.667 14.015 152.447 14.015H149.432L150.257 12.485H151.247C151.377 12.485 151.487 12.44 151.577 12.35C151.667 12.26 151.712 12.145 151.712 12.005V10.52H149.072H145.952H145.907L149.717 8.045H149.072H146.627H145.907L149.987 5.375L145.907 5.6V3.905ZM172.876 5.75H167.611L166.801 7.715H170.506L170.146 6.65H171.886L172.831 9.365H171.076L171.001 9.155H170.761V12.05C170.761 12.19 170.806 12.305 170.896 12.395C170.986 12.485 171.101 12.53 171.241 12.53H172.711L172.051 14.015H170.221C169.841 14.015 169.521 13.885 169.261 13.625C169.001 13.355 168.871 13.03 168.871 12.65V9.155H167.476L166.546 14.015H164.566L165.496 9.155H163.966L165.421 5.75H164.461V4.265H167.731L167.236 3.17H169.606L170.086 4.265H172.876V5.75ZM159.706 11.93L161.476 8.21H159.706L161.926 3.395H164.251L162.526 6.86H162.871H164.026L162.346 10.565H164.026V11.93H159.706ZM159.706 12.65H164.026V14.015H159.706V12.65Z" fill="#1D2026"/>
<path opacity="0.7" d="M35.5908 27.3101H38.623V28H34.7427V21.6016H35.5908V27.3101ZM40.3413 28H39.5283V23.2451H40.3413V28ZM39.4624 21.9839C39.4624 21.8521 39.502 21.7407 39.5811 21.6499C39.6631 21.5591 39.7832 21.5137 39.9414 21.5137C40.0996 21.5137 40.2197 21.5591 40.3018 21.6499C40.3838 21.7407 40.4248 21.8521 40.4248 21.9839C40.4248 22.1157 40.3838 22.2256 40.3018 22.3135C40.2197 22.4014 40.0996 22.4453 39.9414 22.4453C39.7832 22.4453 39.6631 22.4014 39.5811 22.3135C39.502 22.2256 39.4624 22.1157 39.4624 21.9839ZM42.4858 23.2451V28.5493C42.4858 29.4634 42.0713 29.9204 41.2422 29.9204C41.0635 29.9204 40.8979 29.894 40.7456 29.8413V29.1909C40.8394 29.2144 40.9624 29.2261 41.1147 29.2261C41.2964 29.2261 41.4341 29.1763 41.5278 29.0767C41.6245 28.98 41.6729 28.8101 41.6729 28.5669V23.2451H42.4858ZM41.5894 21.9839C41.5894 21.855 41.6289 21.7451 41.708 21.6543C41.79 21.5605 41.9087 21.5137 42.064 21.5137C42.2222 21.5137 42.3423 21.5591 42.4243 21.6499C42.5063 21.7407 42.5474 21.8521 42.5474 21.9839C42.5474 22.1157 42.5063 22.2256 42.4243 22.3135C42.3423 22.4014 42.2222 22.4453 42.064 22.4453C41.9058 22.4453 41.7871 22.4014 41.708 22.3135C41.6289 22.2256 41.5894 22.1157 41.5894 21.9839ZM44.6831 28H43.8701V23.2451H44.6831V28ZM43.8042 21.9839C43.8042 21.8521 43.8438 21.7407 43.9229 21.6499C44.0049 21.5591 44.125 21.5137 44.2832 21.5137C44.4414 21.5137 44.5615 21.5591 44.6436 21.6499C44.7256 21.7407 44.7666 21.8521 44.7666 21.9839C44.7666 22.1157 44.7256 22.2256 44.6436 22.3135C44.5615 22.4014 44.4414 22.4453 44.2832 22.4453C44.125 22.4453 44.0049 22.4014 43.9229 22.3135C43.8438 22.2256 43.8042 22.1157 43.8042 21.9839ZM48.9238 28C48.877 27.9062 48.8389 27.7393 48.8096 27.499C48.4316 27.8916 47.9805 28.0879 47.4561 28.0879C46.9873 28.0879 46.6021 27.9561 46.3003 27.6924C46.0015 27.4258 45.8521 27.0889 45.8521 26.6816C45.8521 26.1865 46.0396 25.8027 46.4146 25.5303C46.7925 25.2549 47.3228 25.1172 48.0054 25.1172H48.7964V24.7437C48.7964 24.4595 48.7114 24.2339 48.5415 24.0669C48.3716 23.897 48.1211 23.812 47.79 23.812C47.5 23.812 47.2568 23.8853 47.0605 24.0317C46.8643 24.1782 46.7661 24.3555 46.7661 24.5635H45.9487C45.9487 24.3262 46.0322 24.0977 46.1992 23.8779C46.3691 23.6553 46.5977 23.4795 46.8848 23.3506C47.1748 23.2217 47.4927 23.1572 47.8384 23.1572C48.3862 23.1572 48.8154 23.2949 49.126 23.5703C49.4365 23.8428 49.5977 24.2192 49.6094 24.6997V26.8882C49.6094 27.3247 49.665 27.6719 49.7764 27.9297V28H48.9238ZM47.5747 27.3804C47.8296 27.3804 48.0713 27.3145 48.2998 27.1826C48.5283 27.0508 48.6938 26.8794 48.7964 26.6685V25.6929H48.1592C47.1631 25.6929 46.665 25.9844 46.665 26.5674C46.665 26.8223 46.75 27.0215 46.9199 27.165C47.0898 27.3086 47.3081 27.3804 47.5747 27.3804ZM54.0874 25.4951V28H53.2437V21.6016H55.6035C56.3037 21.6016 56.8516 21.7803 57.2471 22.1377C57.6455 22.4951 57.8447 22.9683 57.8447 23.5571C57.8447 24.1782 57.6499 24.6572 57.2603 24.9941C56.8735 25.3281 56.3184 25.4951 55.5947 25.4951H54.0874ZM54.0874 24.8052H55.6035C56.0547 24.8052 56.4004 24.6997 56.6406 24.4888C56.8809 24.2749 57.001 23.9673 57.001 23.5659C57.001 23.1851 56.8809 22.8804 56.6406 22.6519C56.4004 22.4233 56.0708 22.3047 55.6519 22.2959H54.0874V24.8052ZM59.6772 28H58.8643V21.25H59.6772V28ZM63.918 28C63.8711 27.9062 63.833 27.7393 63.8037 27.499C63.4258 27.8916 62.9746 28.0879 62.4502 28.0879C61.9814 28.0879 61.5962 27.9561 61.2944 27.6924C60.9956 27.4258 60.8462 27.0889 60.8462 26.6816C60.8462 26.1865 61.0337 25.8027 61.4087 25.5303C61.7866 25.2549 62.3169 25.1172 62.9995 25.1172H63.7905V24.7437C63.7905 24.4595 63.7056 24.2339 63.5356 24.0669C63.3657 23.897 63.1152 23.812 62.7842 23.812C62.4941 23.812 62.251 23.8853 62.0547 24.0317C61.8584 24.1782 61.7603 24.3555 61.7603 24.5635H60.9429C60.9429 24.3262 61.0264 24.0977 61.1934 23.8779C61.3633 23.6553 61.5918 23.4795 61.8789 23.3506C62.1689 23.2217 62.4868 23.1572 62.8325 23.1572C63.3804 23.1572 63.8096 23.2949 64.1201 23.5703C64.4307 23.8428 64.5918 24.2192 64.6035 24.6997V26.8882C64.6035 27.3247 64.6592 27.6719 64.7705 27.9297V28H63.918ZM62.5688 27.3804C62.8237 27.3804 63.0654 27.3145 63.2939 27.1826C63.5225 27.0508 63.688 26.8794 63.7905 26.6685V25.6929H63.1533C62.1572 25.6929 61.6592 25.9844 61.6592 26.5674C61.6592 26.8223 61.7441 27.0215 61.9141 27.165C62.084 27.3086 62.3022 27.3804 62.5688 27.3804ZM66.981 22.0938V23.2451H67.8687V23.8735H66.981V26.8223C66.981 27.0127 67.0205 27.1562 67.0996 27.2529C67.1787 27.3467 67.3135 27.3936 67.5039 27.3936C67.5977 27.3936 67.7266 27.376 67.8906 27.3408V28C67.6768 28.0586 67.4688 28.0879 67.2666 28.0879C66.9033 28.0879 66.6294 27.978 66.4448 27.7583C66.2603 27.5386 66.168 27.2266 66.168 26.8223V23.8735H65.3022V23.2451H66.168V22.0938H66.981ZM69.2222 28V23.8735H68.4707V23.2451H69.2222V22.7573C69.2222 22.2476 69.3584 21.8535 69.6309 21.5752C69.9033 21.2969 70.2886 21.1577 70.7866 21.1577C70.9741 21.1577 71.1602 21.1826 71.3447 21.2324L71.3008 21.8916C71.1631 21.8652 71.0166 21.8521 70.8613 21.8521C70.5977 21.8521 70.394 21.9297 70.2505 22.085C70.1069 22.2373 70.0352 22.457 70.0352 22.7441V23.2451H71.0503V23.8735H70.0352V28H69.2222ZM71.7358 25.5786C71.7358 25.1128 71.8267 24.6938 72.0083 24.3218C72.1929 23.9497 72.4478 23.6626 72.7729 23.4604C73.1011 23.2583 73.4746 23.1572 73.8936 23.1572C74.541 23.1572 75.064 23.3813 75.4624 23.8296C75.8638 24.2778 76.0645 24.874 76.0645 25.6182V25.6753C76.0645 26.1382 75.9751 26.5542 75.7964 26.9233C75.6206 27.2896 75.3672 27.5752 75.0361 27.7803C74.708 27.9854 74.3301 28.0879 73.9023 28.0879C73.2578 28.0879 72.7349 27.8638 72.3335 27.4155C71.9351 26.9673 71.7358 26.374 71.7358 25.6357V25.5786ZM72.5532 25.6753C72.5532 26.2026 72.6748 26.626 72.918 26.9453C73.1641 27.2646 73.4922 27.4243 73.9023 27.4243C74.3154 27.4243 74.6436 27.2632 74.8867 26.9409C75.1299 26.6157 75.2515 26.1616 75.2515 25.5786C75.2515 25.0571 75.127 24.6353 74.8779 24.313C74.6318 23.9878 74.3037 23.8252 73.8936 23.8252C73.4922 23.8252 73.1685 23.9849 72.9224 24.3042C72.6763 24.6235 72.5532 25.0806 72.5532 25.6753ZM79.3823 23.9746C79.2593 23.9541 79.126 23.9438 78.9824 23.9438C78.4492 23.9438 78.0874 24.1709 77.897 24.625V28H77.084V23.2451H77.875L77.8882 23.7944C78.1548 23.3696 78.5327 23.1572 79.022 23.1572C79.1802 23.1572 79.3003 23.1777 79.3823 23.2188V23.9746ZM80.8984 23.2451L80.9204 23.7725C81.269 23.3623 81.7393 23.1572 82.3311 23.1572C82.9961 23.1572 83.4487 23.4121 83.689 23.9219C83.8472 23.6934 84.0522 23.5088 84.3042 23.3682C84.5591 23.2275 84.8594 23.1572 85.2051 23.1572C86.248 23.1572 86.7783 23.7095 86.7959 24.814V28H85.9829V24.8623C85.9829 24.5225 85.9053 24.269 85.75 24.1021C85.5947 23.9321 85.334 23.8472 84.9678 23.8472C84.666 23.8472 84.4155 23.938 84.2163 24.1196C84.0171 24.2983 83.9014 24.54 83.8691 24.8447V28H83.0518V24.8843C83.0518 24.1929 82.7134 23.8472 82.0366 23.8472C81.5034 23.8472 81.1387 24.0742 80.9424 24.5283V28H80.1294V23.2451H80.8984ZM91.4761 21.6016L93.5679 26.8223L95.6597 21.6016H96.7539V28H95.9102V25.5083L95.9893 22.8188L93.8887 28H93.2427L91.1465 22.832L91.23 25.5083V28H90.3862V21.6016H91.4761ZM101.052 28C101.005 27.9062 100.967 27.7393 100.938 27.499C100.56 27.8916 100.108 28.0879 99.584 28.0879C99.1152 28.0879 98.73 27.9561 98.4282 27.6924C98.1294 27.4258 97.98 27.0889 97.98 26.6816C97.98 26.1865 98.1675 25.8027 98.5425 25.5303C98.9204 25.2549 99.4507 25.1172 100.133 25.1172H100.924V24.7437C100.924 24.4595 100.839 24.2339 100.669 24.0669C100.5 23.897 100.249 23.812 99.918 23.812C99.6279 23.812 99.3848 23.8853 99.1885 24.0317C98.9922 24.1782 98.894 24.3555 98.894 24.5635H98.0767C98.0767 24.3262 98.1602 24.0977 98.3271 23.8779C98.4971 23.6553 98.7256 23.4795 99.0127 23.3506C99.3027 23.2217 99.6206 23.1572 99.9663 23.1572C100.514 23.1572 100.943 23.2949 101.254 23.5703C101.564 23.8428 101.726 24.2192 101.737 24.6997V26.8882C101.737 27.3247 101.793 27.6719 101.904 27.9297V28H101.052ZM99.7026 27.3804C99.9575 27.3804 100.199 27.3145 100.428 27.1826C100.656 27.0508 100.822 26.8794 100.924 26.6685V25.6929H100.287C99.291 25.6929 98.793 25.9844 98.793 26.5674C98.793 26.8223 98.8779 27.0215 99.0479 27.165C99.2178 27.3086 99.436 27.3804 99.7026 27.3804ZM103.781 23.2451L103.807 23.8428C104.17 23.3857 104.645 23.1572 105.231 23.1572C106.236 23.1572 106.743 23.7241 106.751 24.8579V28H105.938V24.8535C105.936 24.5107 105.856 24.2573 105.701 24.0933C105.549 23.9292 105.31 23.8472 104.985 23.8472C104.721 23.8472 104.49 23.9175 104.291 24.0581C104.091 24.1987 103.936 24.3833 103.825 24.6118V28H103.012V23.2451H103.781ZM110.913 28C110.866 27.9062 110.828 27.7393 110.799 27.499C110.421 27.8916 109.97 28.0879 109.445 28.0879C108.977 28.0879 108.591 27.9561 108.29 27.6924C107.991 27.4258 107.841 27.0889 107.841 26.6816C107.841 26.1865 108.029 25.8027 108.404 25.5303C108.782 25.2549 109.312 25.1172 109.995 25.1172H110.786V24.7437C110.786 24.4595 110.701 24.2339 110.531 24.0669C110.361 23.897 110.11 23.812 109.779 23.812C109.489 23.812 109.246 23.8853 109.05 24.0317C108.854 24.1782 108.755 24.3555 108.755 24.5635H107.938C107.938 24.3262 108.021 24.0977 108.188 23.8779C108.358 23.6553 108.587 23.4795 108.874 23.3506C109.164 23.2217 109.482 23.1572 109.828 23.1572C110.375 23.1572 110.805 23.2949 111.115 23.5703C111.426 23.8428 111.587 24.2192 111.599 24.6997V26.8882C111.599 27.3247 111.654 27.6719 111.766 27.9297V28H110.913ZM109.564 27.3804C109.819 27.3804 110.061 27.3145 110.289 27.1826C110.518 27.0508 110.683 26.8794 110.786 26.6685V25.6929H110.148C109.152 25.6929 108.654 25.9844 108.654 26.5674C108.654 26.8223 108.739 27.0215 108.909 27.165C109.079 27.3086 109.297 27.3804 109.564 27.3804ZM112.68 25.583C112.68 24.8418 112.851 24.2529 113.194 23.8164C113.537 23.377 113.991 23.1572 114.556 23.1572C115.136 23.1572 115.589 23.3623 115.914 23.7725L115.954 23.2451H116.696V27.8857C116.696 28.501 116.513 28.9858 116.147 29.3403C115.784 29.6948 115.294 29.8721 114.679 29.8721C114.336 29.8721 114.001 29.7988 113.673 29.6523C113.345 29.5059 113.094 29.3052 112.921 29.0503L113.343 28.5625C113.692 28.9932 114.118 29.2085 114.622 29.2085C115.018 29.2085 115.325 29.0972 115.545 28.8745C115.768 28.6519 115.879 28.3384 115.879 27.9341V27.5254C115.554 27.9004 115.11 28.0879 114.547 28.0879C113.991 28.0879 113.54 27.8638 113.194 27.4155C112.851 26.9673 112.68 26.3564 112.68 25.583ZM113.497 25.6753C113.497 26.2114 113.607 26.6333 113.827 26.9409C114.046 27.2456 114.354 27.3979 114.75 27.3979C115.262 27.3979 115.639 27.165 115.879 26.6992V24.5283C115.63 24.0742 115.256 23.8472 114.758 23.8472C114.363 23.8472 114.054 24.001 113.831 24.3086C113.608 24.6162 113.497 25.0718 113.497 25.6753ZM119.9 28.0879C119.255 28.0879 118.731 27.877 118.327 27.4551C117.922 27.0303 117.72 26.4634 117.72 25.7544V25.605C117.72 25.1333 117.81 24.7129 117.988 24.3438C118.17 23.9717 118.422 23.6816 118.744 23.4736C119.069 23.2627 119.421 23.1572 119.799 23.1572C120.417 23.1572 120.897 23.3608 121.24 23.7681C121.583 24.1753 121.754 24.7583 121.754 25.5171V25.8555H118.533C118.545 26.3242 118.681 26.7036 118.942 26.9937C119.206 27.2808 119.54 27.4243 119.944 27.4243C120.231 27.4243 120.474 27.3657 120.673 27.2485C120.873 27.1313 121.047 26.9761 121.196 26.7827L121.693 27.1694C121.294 27.7817 120.697 28.0879 119.9 28.0879ZM119.799 23.8252C119.471 23.8252 119.195 23.9453 118.973 24.1855C118.75 24.4229 118.612 24.7568 118.56 25.1875H120.941V25.126C120.918 24.7129 120.807 24.3936 120.607 24.168C120.408 23.9395 120.139 23.8252 119.799 23.8252ZM123.464 23.2451L123.486 23.7725C123.834 23.3623 124.305 23.1572 124.896 23.1572C125.562 23.1572 126.014 23.4121 126.254 23.9219C126.413 23.6934 126.618 23.5088 126.87 23.3682C127.125 23.2275 127.425 23.1572 127.771 23.1572C128.813 23.1572 129.344 23.7095 129.361 24.814V28H128.548V24.8623C128.548 24.5225 128.471 24.269 128.315 24.1021C128.16 23.9321 127.899 23.8472 127.533 23.8472C127.231 23.8472 126.981 23.938 126.782 24.1196C126.583 24.2983 126.467 24.54 126.435 24.8447V28H125.617V24.8843C125.617 24.1929 125.279 23.8472 124.602 23.8472C124.069 23.8472 123.704 24.0742 123.508 24.5283V28H122.695V23.2451H123.464ZM132.565 28.0879C131.92 28.0879 131.396 27.877 130.992 27.4551C130.587 27.0303 130.385 26.4634 130.385 25.7544V25.605C130.385 25.1333 130.475 24.7129 130.653 24.3438C130.835 23.9717 131.087 23.6816 131.409 23.4736C131.734 23.2627 132.086 23.1572 132.464 23.1572C133.082 23.1572 133.562 23.3608 133.905 23.7681C134.248 24.1753 134.419 24.7583 134.419 25.5171V25.8555H131.198C131.21 26.3242 131.346 26.7036 131.607 26.9937C131.871 27.2808 132.205 27.4243 132.609 27.4243C132.896 27.4243 133.139 27.3657 133.338 27.2485C133.538 27.1313 133.712 26.9761 133.861 26.7827L134.358 27.1694C133.959 27.7817 133.362 28.0879 132.565 28.0879ZM132.464 23.8252C132.136 23.8252 131.86 23.9453 131.638 24.1855C131.415 24.4229 131.277 24.7568 131.225 25.1875H133.606V25.126C133.583 24.7129 133.472 24.3936 133.272 24.168C133.073 23.9395 132.804 23.8252 132.464 23.8252ZM136.133 23.2451L136.16 23.8428C136.523 23.3857 136.998 23.1572 137.583 23.1572C138.588 23.1572 139.095 23.7241 139.104 24.8579V28H138.291V24.8535C138.288 24.5107 138.209 24.2573 138.054 24.0933C137.901 23.9292 137.663 23.8472 137.337 23.8472C137.074 23.8472 136.842 23.9175 136.643 24.0581C136.444 24.1987 136.289 24.3833 136.177 24.6118V28H135.364V23.2451H136.133ZM141.433 22.0938V23.2451H142.321V23.8735H141.433V26.8223C141.433 27.0127 141.473 27.1562 141.552 27.2529C141.631 27.3467 141.766 27.3936 141.956 27.3936C142.05 27.3936 142.179 27.376 142.343 27.3408V28C142.129 28.0586 141.921 28.0879 141.719 28.0879C141.355 28.0879 141.082 27.978 140.897 27.7583C140.712 27.5386 140.62 27.2266 140.62 26.8223V23.8735H139.754V23.2451H140.62V22.0938H141.433ZM147.52 25.1479C146.796 24.9399 146.269 24.6851 145.938 24.3833C145.609 24.0786 145.445 23.7036 145.445 23.2583C145.445 22.7544 145.646 22.3384 146.047 22.0103C146.452 21.6792 146.976 21.5137 147.621 21.5137C148.06 21.5137 148.451 21.5986 148.794 21.7686C149.14 21.9385 149.406 22.1729 149.594 22.4717C149.784 22.7705 149.879 23.0972 149.879 23.4517H149.031C149.031 23.0649 148.908 22.7617 148.662 22.542C148.416 22.3193 148.069 22.208 147.621 22.208C147.205 22.208 146.879 22.3003 146.645 22.4849C146.414 22.6665 146.298 22.9199 146.298 23.2451C146.298 23.5059 146.408 23.7271 146.627 23.9087C146.85 24.0874 147.227 24.2515 147.757 24.4009C148.29 24.5503 148.706 24.7158 149.005 24.8975C149.307 25.0762 149.529 25.2856 149.673 25.5259C149.819 25.7661 149.893 26.0488 149.893 26.374C149.893 26.8926 149.69 27.3086 149.286 27.6221C148.882 27.9326 148.341 28.0879 147.665 28.0879C147.225 28.0879 146.815 28.0044 146.434 27.8374C146.053 27.6675 145.759 27.436 145.551 27.1431C145.346 26.8501 145.243 26.5176 145.243 26.1455H146.091C146.091 26.5322 146.233 26.8384 146.518 27.064C146.805 27.2866 147.187 27.3979 147.665 27.3979C148.11 27.3979 148.451 27.3071 148.688 27.1255C148.926 26.9438 149.044 26.6963 149.044 26.3828C149.044 26.0693 148.935 25.8276 148.715 25.6577C148.495 25.4849 148.097 25.3149 147.52 25.1479ZM152.406 26.8091L153.514 23.2451H154.384L152.472 28.7339C152.176 29.5249 151.706 29.9204 151.062 29.9204L150.908 29.9072L150.604 29.8501V29.1909L150.824 29.2085C151.1 29.2085 151.313 29.1528 151.466 29.0415C151.621 28.9302 151.749 28.7266 151.848 28.4307L152.028 27.9473L150.332 23.2451H151.22L152.406 26.8091ZM157.882 26.7388C157.882 26.519 157.798 26.3491 157.631 26.229C157.467 26.106 157.179 26.0005 156.766 25.9126C156.355 25.8247 156.029 25.7192 155.786 25.5962C155.545 25.4731 155.367 25.3267 155.25 25.1567C155.135 24.9868 155.078 24.7847 155.078 24.5503C155.078 24.1606 155.242 23.8311 155.57 23.5615C155.901 23.292 156.323 23.1572 156.836 23.1572C157.375 23.1572 157.812 23.2964 158.146 23.5747C158.482 23.853 158.651 24.209 158.651 24.6426H157.833C157.833 24.4199 157.738 24.228 157.548 24.0669C157.36 23.9058 157.123 23.8252 156.836 23.8252C156.54 23.8252 156.309 23.8896 156.142 24.0186C155.975 24.1475 155.891 24.3159 155.891 24.5239C155.891 24.7202 155.969 24.8682 156.124 24.9678C156.279 25.0674 156.559 25.1626 156.963 25.2534C157.371 25.3442 157.7 25.4526 157.952 25.5786C158.204 25.7046 158.39 25.8569 158.51 26.0356C158.633 26.2114 158.695 26.4268 158.695 26.6816C158.695 27.1064 158.525 27.4478 158.185 27.7056C157.845 27.9604 157.404 28.0879 156.862 28.0879C156.481 28.0879 156.145 28.0205 155.852 27.8857C155.559 27.751 155.329 27.5635 155.162 27.3232C154.998 27.0801 154.916 26.8179 154.916 26.5366H155.729C155.743 26.8091 155.852 27.0259 156.054 27.187C156.259 27.3452 156.528 27.4243 156.862 27.4243C157.17 27.4243 157.416 27.3628 157.601 27.2397C157.788 27.1138 157.882 26.9468 157.882 26.7388ZM160.857 22.0938V23.2451H161.745V23.8735H160.857V26.8223C160.857 27.0127 160.896 27.1562 160.976 27.2529C161.055 27.3467 161.189 27.3936 161.38 27.3936C161.474 27.3936 161.603 27.376 161.767 27.3408V28C161.553 28.0586 161.345 28.0879 161.143 28.0879C160.779 28.0879 160.505 27.978 160.321 27.7583C160.136 27.5386 160.044 27.2266 160.044 26.8223V23.8735H159.178V23.2451H160.044V22.0938H160.857ZM164.671 28.0879C164.027 28.0879 163.502 27.877 163.098 27.4551C162.694 27.0303 162.492 26.4634 162.492 25.7544V25.605C162.492 25.1333 162.581 24.7129 162.76 24.3438C162.941 23.9717 163.193 23.6816 163.516 23.4736C163.841 23.2627 164.192 23.1572 164.57 23.1572C165.188 23.1572 165.669 23.3608 166.012 23.7681C166.354 24.1753 166.526 24.7583 166.526 25.5171V25.8555H163.305C163.316 26.3242 163.453 26.7036 163.713 26.9937C163.977 27.2808 164.311 27.4243 164.715 27.4243C165.002 27.4243 165.246 27.3657 165.445 27.2485C165.644 27.1313 165.818 26.9761 165.968 26.7827L166.464 27.1694C166.066 27.7817 165.468 28.0879 164.671 28.0879ZM164.57 23.8252C164.242 23.8252 163.967 23.9453 163.744 24.1855C163.521 24.4229 163.384 24.7568 163.331 25.1875H165.713V25.126C165.689 24.7129 165.578 24.3936 165.379 24.168C165.18 23.9395 164.91 23.8252 164.57 23.8252ZM168.235 23.2451L168.257 23.7725C168.606 23.3623 169.076 23.1572 169.668 23.1572C170.333 23.1572 170.786 23.4121 171.026 23.9219C171.184 23.6934 171.389 23.5088 171.641 23.3682C171.896 23.2275 172.196 23.1572 172.542 23.1572C173.585 23.1572 174.115 23.7095 174.133 24.814V28H173.32V24.8623C173.32 24.5225 173.242 24.269 173.087 24.1021C172.932 23.9321 172.671 23.8472 172.305 23.8472C172.003 23.8472 171.752 23.938 171.553 24.1196C171.354 24.2983 171.238 24.54 171.206 24.8447V28H170.389V24.8843C170.389 24.1929 170.05 23.8472 169.374 23.8472C168.84 23.8472 168.476 24.0742 168.279 24.5283V28H167.466V23.2451H168.235Z" fill="#515A66"/>
</svg>
